<?xml version="1.0" encoding="UTF-8" standalone="no"?>
<!-- Created with Inkscape (http://www.inkscape.org/) -->

<svg
   xmlns:dc="http://purl.org/dc/elements/1.1/"
   xmlns:cc="http://creativecommons.org/ns#"
   xmlns:rdf="http://www.w3.org/1999/02/22-rdf-syntax-ns#"
   xmlns:svg="http://www.w3.org/2000/svg"
   xmlns="http://www.w3.org/2000/svg"
   xmlns:sodipodi="http://sodipodi.sourceforge.net/DTD/sodipodi-0.dtd"
   xmlns:inkscape="http://www.inkscape.org/namespaces/inkscape"
   width="533"
   height="500"
   id="svg3325"
   version="1.1"
   inkscape:version="0.48.4 r9939"
   sodipodi:docname="09 GUI-Prototyp Spielmodus Singleplayer Spielende Spielfeldanzeige.svg">
  <defs
     id="defs3327">
    <filter
       x="-0.19447339"
       y="-0.21010093"
       width="1.3889468"
       height="1.4202019"
       color-interpolation-filters="sRGB"
       id="filter6315">
      <feGaussianBlur
         id="feGaussianBlur6317"
         stdDeviation="12.92821" />
    </filter>
    <filter
       x="-0.19447339"
       y="-0.21010093"
       width="1.3889468"
       height="1.4202019"
       color-interpolation-filters="sRGB"
       id="filter3297">
      <feGaussianBlur
         id="feGaussianBlur3299"
         stdDeviation="12.92821" />
    </filter>
    <filter
       x="-0.19447339"
       y="-0.21010093"
       width="1.3889468"
       height="1.4202019"
       color-interpolation-filters="sRGB"
       id="filter6315-7">
      <feGaussianBlur
         id="feGaussianBlur6317-4"
         stdDeviation="12.92821" />
    </filter>
    <filter
       x="-0.19447339"
       y="-0.21010093"
       width="1.3889468"
       height="1.4202019"
       color-interpolation-filters="sRGB"
       id="filter6315-0">
      <feGaussianBlur
         id="feGaussianBlur6317-9"
         stdDeviation="12.92821" />
    </filter>
  </defs>
  <sodipodi:namedview
     id="base"
     pagecolor="#ffffff"
     bordercolor="#666666"
     borderopacity="1.0"
     inkscape:pageopacity="0.0"
     inkscape:pageshadow="2"
     inkscape:zoom="0.90368316"
     inkscape:cx="548.0887"
     inkscape:cy="165.64298"
     inkscape:document-units="px"
     inkscape:current-layer="layer1"
     showgrid="false"
     inkscape:window-width="1600"
     inkscape:window-height="1116"
     inkscape:window-x="1592"
     inkscape:window-y="-8"
     inkscape:window-maximized="1">
    <inkscape:grid
       type="xygrid"
       id="grid3333"
       empspacing="5"
       visible="true"
       enabled="true"
       snapvisiblegridlinesonly="true" />
  </sodipodi:namedview>
  <metadata
     id="metadata3330">
    <rdf:RDF>
      <cc:Work
         rdf:about="">
        <dc:format>image/svg+xml</dc:format>
        <dc:type
           rdf:resource="http://purl.org/dc/dcmitype/StillImage" />
        <dc:title></dc:title>
      </cc:Work>
    </rdf:RDF>
  </metadata>
  <g
     inkscape:label="Ebene 1"
     inkscape:groupmode="layer"
     id="layer1"
     transform="translate(0,-552.36215)">
    <path
       inkscape:connector-curvature="0"
       style="fill:#b2ff00;fill-opacity:1;fill-rule:evenodd;stroke:none"
       id="rect6252"
       d="m 143.85691,648.86525 251.38864,0 125.69431,314.21452 -502.777266,0 z" />
    <path
       inkscape:connector-curvature="0"
       style="opacity:0.59932664000000002;fill:#ffffff;fill-opacity:1;fill-rule:evenodd;stroke:#000000;stroke-opacity:1;stroke-width:4;stroke-miterlimit:4;stroke-dasharray:none"
       id="path6255"
       d="m 185.75502,858.87066 a 41.898097,21.482091 0 1 1 -0.0178,-0.62575" />
    <path
       inkscape:connector-curvature="0"
       style="opacity:0.59932664;fill:#ffffff;fill-opacity:1;fill-rule:evenodd;stroke:none"
       id="path6257"
       d="m 311.44933,847.09726 a 41.898097,21.482091 0 1 1 -0.0178,-0.62575" />
    <path
       inkscape:connector-curvature="0"
       style="opacity:0.59932664;fill:#ffffff;fill-opacity:1;fill-rule:evenodd;stroke:none"
       id="path6259"
       d="m 447.07915,894.07401 a 41.898097,21.482091 0 1 1 -0.0178,-0.62574" />
    <path
       inkscape:connector-curvature="0"
       style="opacity:0.59932664;fill:#ffffff;fill-opacity:1;fill-rule:evenodd;stroke:none"
       id="path6261"
       d="m 214.97913,761.79203 a 29.224108,12.75904 0 1 0 -0.0124,0.37164" />
    <path
       inkscape:connector-curvature="0"
       style="opacity:0.59932664;fill:#ffffff;fill-opacity:1;fill-rule:evenodd;stroke:none"
       id="path6263"
       d="m 308.7329,741.36638 a 29.224108,12.75904 0 1 0 -0.0125,0.37165" />
    <path
       inkscape:connector-curvature="0"
       style="opacity:0.59932664;fill:#ffffff;fill-opacity:1;fill-rule:evenodd;stroke:none"
       id="path6265"
       d="m 402.45566,761.79203 a 29.224108,12.75904 0 1 0 -0.0124,0.37164" />
    <path
       inkscape:connector-curvature="0"
       style="opacity:0.59932664;fill:#ffffff;fill-opacity:1;fill-rule:evenodd;stroke:none"
       id="path6267"
       d="m 284.16328,675.50246 a 14.612052,6.3795196 0 1 0 -0.006,0.18584" />
    <path
       inkscape:connector-curvature="0"
       style="opacity:0.59932664;fill:#ffffff;fill-opacity:1;fill-rule:evenodd;stroke:none"
       id="path6269"
       d="m 367.95948,690.00941 a 14.612052,6.3795196 0 1 0 -0.006,0.18582" />
    <path
       inkscape:connector-curvature="0"
       style="opacity:0.59932664000000002;fill:#ffffff;fill-opacity:1;fill-rule:evenodd;stroke:#000000;stroke-opacity:1;stroke-width:2;stroke-miterlimit:4;stroke-dasharray:none"
       id="path6271"
       d="m 200.36707,677.49088 a 14.612052,6.3795196 0 1 0 -0.006,0.18583" />
    <path
       inkscape:connector-curvature="0"
       style="opacity:0.59932664;fill:#ffffff;fill-opacity:1;fill-rule:evenodd;stroke:none"
       id="path6293"
       d="m 269.55122,900.23686 a 41.898097,21.482091 0 1 1 -0.0178,-0.62575" />
    <text
       sodipodi:linespacing="125%"
       style="font-size:34.04274368px;font-style:normal;font-variant:normal;font-weight:normal;font-stretch:normal;text-align:center;line-height:125%;letter-spacing:0px;word-spacing:0px;text-anchor:middle;fill:#000000;fill-opacity:1;stroke:none;font-family:Calibri;-inkscape-font-specification:Calibri"
       xml:space="preserve"
       id="text6325"
       y="904.36212"
       x="406">POI</text>
    <path
       style="fill:none;stroke:#000000;stroke-width:1px;stroke-linecap:butt;stroke-linejoin:miter;stroke-opacity:1"
       d="m 175.94662,319.62705 c 19.91849,17.70532 19.91849,16.59874 19.91849,16.59874"
       id="path4175"
       inkscape:connector-curvature="0"
       transform="translate(0,552.36215)" />
    <path
       style="fill:none;stroke:#000000;stroke-width:1px;stroke-linecap:butt;stroke-linejoin:miter;stroke-opacity:1"
       d="m 268.89955,347.29161 96.27268,-5.53291"
       id="path4177"
       inkscape:connector-curvature="0"
       transform="translate(0,552.36215)" />
    <path
       style="fill:none;stroke:#000000;stroke-width:1px;stroke-linecap:butt;stroke-linejoin:miter;stroke-opacity:1"
       d="m 185.90586,304.13489 39.83698,-8.85266"
       id="path4179"
       inkscape:connector-curvature="0"
       transform="translate(0,552.36215)" />
    <path
       style="fill:none;stroke:#000000;stroke-width:1px;stroke-linecap:butt;stroke-linejoin:miter;stroke-opacity:1"
       d="M 248.98107,275.36375 198.07827,221.1412"
       id="path4181"
       inkscape:connector-curvature="0"
       transform="translate(0,552.36215)" />
    <path
       style="fill:none;stroke:#000000;stroke-width:1px;stroke-linecap:butt;stroke-linejoin:miter;stroke-opacity:1"
       d="m 212.46385,204.54246 39.83697,-12.1724"
       id="path4183"
       inkscape:connector-curvature="0"
       transform="translate(0,552.36215)" />
    <path
       style="fill:none;stroke:#000000;stroke-width:1px;stroke-linecap:butt;stroke-linejoin:miter;stroke-opacity:1"
       d="m 306.52336,193.47664 38.73039,12.17241"
       id="path4185"
       inkscape:connector-curvature="0"
       transform="translate(0,552.36215)" />
    <path
       style="fill:none;stroke:#000000;stroke-width:1px;stroke-linecap:butt;stroke-linejoin:miter;stroke-opacity:1"
       d="M 371.81173,195.6898 357.42616,142.57384"
       id="path4187"
       inkscape:connector-curvature="0"
       transform="translate(0,552.36215)" />
    <path
       style="fill:none;stroke:#000000;stroke-width:1px;stroke-linecap:butt;stroke-linejoin:miter;stroke-opacity:1"
       d="M 338.61425,137.04093 282.17854,123.76194"
       id="path4189"
       inkscape:connector-curvature="0"
       transform="translate(0,552.36215)" />
    <path
       style="fill:none;stroke:#000000;stroke-width:1px;stroke-linecap:butt;stroke-linejoin:miter;stroke-opacity:1"
       d="m 255.62056,121.54877 -54.22254,4.42634"
       id="path4191"
       inkscape:connector-curvature="0"
       transform="translate(0,552.36215)" />
    <path
       style="fill:none;stroke:#000000;stroke-width:1px;stroke-linecap:butt;stroke-linejoin:miter;stroke-opacity:1"
       d="M 403.90262,319.62705 379.55781,222.24779"
       id="path4193"
       inkscape:connector-curvature="0"
       transform="translate(0,552.36215)" />
    <path
       inkscape:connector-curvature="0"
       style="opacity:0.59932664;fill:#000100;fill-opacity:1;fill-rule:evenodd;stroke:#000000;stroke-width:1.10028088;stroke-miterlimit:4;stroke-opacity:1;stroke-dasharray:none"
       id="path6271-1"
       d="m 193.83745,677.50565 a 8.0386804,3.5096316 0 1 0 -0.003,0.10224" />
    <path
       style="fill:none;stroke:#000000;stroke-width:1.33630359px;stroke-linecap:butt;stroke-linejoin:miter;stroke-opacity:1"
       d="m 222.93748,899.7391 c 2.12851,0.10327 0.7632,1.44339 -0.35378,1.71703 -3.02698,0.74105 -6.12333,-0.68785 -6.72172,-2.06036 -1.07036,-2.45512 3.36245,-4.5528 8.13682,-4.80735 7.00657,-0.37353 12.6991,2.58239 13.08967,5.83752 0.52053,4.33855 -7.28273,7.78472 -15.91987,7.89772 -10.86898,0.14286 -19.39381,-4.48689 -19.45762,-9.61454 -0.0773,-6.21065 11.20843,-11.04285 23.70291,-10.98844 14.7243,0.0635 26.11778,6.39255 25.82556,13.39212 -0.33738,8.08099 -15.13543,14.30912 -31.48594,14.07858 -18.57853,-0.26193 -32.85349,-8.29841 -32.19351,-17.16912 0.74041,-9.9515 19.06298,-17.57995 39.26899,-17.16909 22.4325,0.45591 39.59509,10.20447 38.56146,20.94628"
       id="path4248"
       inkscape:connector-curvature="0" />
    <path
       inkscape:connector-curvature="0"
       style="fill:#006fff;fill-opacity:1;fill-rule:evenodd;stroke:none"
       id="path6275"
       d="m 185.73344,638.05938 c -6.24279,0 -11.30098,4.15801 -11.30098,9.29139 0,3.09274 1.83824,5.83195 4.66389,7.52161 -4.37456,5.24827 -7.34743,14.23424 -7.34743,17.77076 0,5.13339 6.26037,9.2966 13.98452,9.2966 7.72415,0 13.98452,-4.16321 13.98452,-9.2966 l 0,-0.27067 c -0.15111,-3.44614 -3.113,-12.26601 -7.39766,-17.46886 2.85629,-1.68693 4.7213,-4.44041 4.7213,-7.55284 l -0.007,-0.27068 c -0.17811,-5.02581 -5.18641,-9.02071 -11.30098,-9.02071 z" />
  </g>
</svg>
